<svg width="480" height="505" viewBox="0 0 480 505" fill="none" xmlns="http://www.w3.org/2000/svg">
<path d="M151.664 408.326C160.583 397.776 109.545 56.6465 111.032 48.1057C112.518 39.5649 389.51 28.5121 396.943 27.0049C404.375 25.4977 449 370.5 445.007 374.665C441.014 378.83 142.745 418.876 151.664 408.326Z" fill="#F2F2F2" stroke="#040404" stroke-width="28"/>
<path d="M198.791 189.438C199.508 189.141 200.179 188.902 200.802 188.722C201.413 188.437 202.031 188.205 202.654 188.025C203.371 187.727 204.26 187.517 205.319 187.395C206.473 187.154 207.538 187.084 208.517 187.186C209.588 187.169 210.579 187.377 211.488 187.809C212.49 188.122 213.259 188.732 213.793 189.636C214.339 190.647 214.751 191.888 215.029 193.359C215.4 194.712 215.671 196.13 215.843 197.613C216.015 199.097 216.133 200.586 216.199 202.082C216.358 203.46 216.505 204.731 216.64 205.897L226.032 287.115C226.167 288.281 226.308 289.5 226.455 290.771C226.696 291.924 226.837 293.143 226.878 294.427C226.919 295.711 226.742 296.966 226.347 298.193C225.94 299.314 225.249 300.306 224.275 301.17C222.927 302.507 220.981 303.323 218.438 303.617C216.013 304.005 213.863 303.985 211.988 303.558C210.007 303.142 208.701 302.059 208.069 300.306C207.543 298.542 207.175 296.759 206.967 294.958C204.608 281.057 202.656 267.431 201.112 254.08C199.662 240.61 198.116 226.776 196.474 212.578C196.323 213.132 195.637 213.695 194.414 214.265C193.298 214.824 191.963 215.354 190.41 215.856C188.964 216.345 187.564 216.776 186.211 217.147C184.858 217.518 183.969 217.728 183.546 217.777C180.827 218.414 178.254 218.443 175.824 217.865C173.489 217.168 171.972 215.196 171.275 211.948C170.459 208.607 170.894 205.872 172.581 203.744C174.373 201.604 176.751 199.879 179.714 198.57C182.97 197.013 186.12 195.467 189.164 193.934C192.301 192.283 195.51 190.784 198.791 189.438ZM284.293 295.381C282.481 295.591 280.607 295.706 278.671 295.725C276.824 295.633 274.954 295.339 273.061 294.844C270.215 294.051 267.429 292.894 264.703 291.373C262.066 289.74 259.607 287.882 257.326 285.8C251.865 280.923 247.452 274.956 244.085 267.898C240.707 260.74 238.576 253.336 237.691 245.686C236.481 235.217 237.324 224.868 240.221 214.638C240.728 212.845 241.424 210.928 242.311 208.888C243.297 206.835 244.396 204.872 245.608 202.998C246.908 201.011 248.232 199.226 249.579 197.642C251.026 196.047 252.515 194.803 254.044 193.912C256.142 192.65 258.442 191.364 260.942 190.054C264.047 188.675 267.619 187.803 271.657 187.438C275.695 187.073 279.422 187.101 282.837 187.523C287.595 188.094 291.804 189.648 295.463 192.183C299.111 194.617 302.326 197.714 305.107 201.473C307.876 205.131 310.188 209.25 312.044 213.829C313.888 218.309 315.391 222.929 316.554 227.691C317.329 230.866 317.853 234.069 318.125 237.302C318.385 240.434 318.5 243.634 318.47 246.902C318.405 249.868 318.239 252.845 317.973 255.834C317.807 258.812 317.428 261.712 316.837 264.535C316.245 267.357 315.39 270.108 314.272 272.788C313.142 275.367 311.642 277.835 309.773 280.194C306.378 284.361 302.538 287.763 298.253 290.401C294.057 292.926 289.403 294.586 284.293 295.381ZM273.962 207.369C272.552 207.532 271.161 207.846 269.786 208.311C268.501 208.664 267.301 209.313 266.186 210.258C264.882 211.327 263.751 212.58 262.795 214.016C261.839 215.453 261.04 216.922 260.398 218.425C258.703 222.293 257.692 226.337 257.364 230.558C257.036 234.778 257.116 239.002 257.605 243.23C258.106 247.558 259.077 251.985 260.518 256.511C262.06 261.025 264.311 265.049 267.27 268.583C268.687 270.256 270.283 271.703 272.056 272.926C273.919 274.037 275.992 274.766 278.277 275.114C280.348 275.385 282.379 275.303 284.369 274.869C286.459 274.423 288.347 273.542 290.031 272.225C292.74 270.075 294.776 267.392 296.138 264.174C297.5 260.956 298.38 257.539 298.778 253.923C299.277 250.295 299.361 246.613 299.031 242.877C298.801 239.129 298.411 235.757 297.861 232.76C297.31 229.763 296.44 226.651 295.251 223.422C294.061 220.193 292.504 217.313 290.579 214.782C288.755 212.238 286.435 210.262 283.62 208.854C280.894 207.333 277.675 206.838 273.962 207.369ZM368.27 285.694C366.554 285.892 364.778 286.001 362.944 286.02C361.195 285.932 359.423 285.654 357.629 285.185C354.933 284.434 352.294 283.338 349.711 281.897C347.213 280.35 344.883 278.59 342.722 276.617C337.549 271.996 333.368 266.343 330.179 259.657C326.979 252.876 324.96 245.862 324.121 238.614C322.975 228.696 323.773 218.891 326.518 209.2C326.998 207.502 327.658 205.686 328.498 203.753C329.432 201.808 330.474 199.948 331.621 198.173C332.853 196.291 334.107 194.599 335.383 193.099C336.755 191.587 338.165 190.41 339.613 189.566C341.601 188.369 343.78 187.151 346.149 185.911C349.09 184.604 352.474 183.778 356.299 183.432C360.125 183.086 363.655 183.113 366.891 183.512C371.399 184.054 375.386 185.525 378.853 187.927C382.309 190.233 385.354 193.167 387.988 196.728C390.612 200.193 392.803 204.095 394.561 208.434C396.308 212.678 397.732 217.055 398.834 221.566C399.568 224.574 400.064 227.609 400.322 230.672C400.568 233.639 400.677 236.671 400.648 239.766C400.587 242.576 400.43 245.397 400.177 248.228C400.02 251.049 399.662 253.797 399.101 256.471C398.541 259.145 397.731 261.751 396.671 264.29C395.601 266.733 394.18 269.071 392.409 271.306C389.193 275.253 385.556 278.476 381.496 280.975C377.52 283.368 373.112 284.941 368.27 285.694ZM358.483 202.314C357.148 202.469 355.829 202.766 354.527 203.207C353.31 203.541 352.173 204.155 351.116 205.051C349.881 206.063 348.81 207.25 347.904 208.611C346.999 209.972 346.242 211.364 345.633 212.788C344.027 216.453 343.069 220.284 342.758 224.282C342.448 228.28 342.524 232.282 342.987 236.287C343.461 240.388 344.381 244.582 345.747 248.87C347.208 253.146 349.34 256.958 352.143 260.307C353.486 261.891 354.997 263.262 356.678 264.421C358.442 265.473 360.407 266.164 362.571 266.494C364.533 266.75 366.457 266.672 368.342 266.261C370.323 265.839 372.111 265.004 373.706 263.756C376.273 261.72 378.202 259.177 379.492 256.129C380.782 253.081 381.616 249.843 381.993 246.417C382.465 242.98 382.545 239.492 382.232 235.953C382.015 232.402 381.646 229.207 381.124 226.369C380.603 223.53 379.778 220.581 378.651 217.522C377.525 214.463 376.049 211.735 374.226 209.336C372.498 206.927 370.3 205.055 367.633 203.72C365.05 202.28 362 201.811 358.483 202.314Z" fill="#040404"/>
<line x1="122.542" y1="91.494" x2="408.815" y2="67.5662" stroke="#040404" stroke-width="80"/>
<path d="M150.5 414.5C150.5 414.5 427.864 386.268 443.573 377.341C445.202 376.275 445.402 376.141 443.778 377.215C443.716 377.257 443.647 377.299 443.573 377.341C431.875 384.996 346.507 440.723 333 443C317.611 445.594 108.903 466.368 95.5 470C82.0969 473.632 150.5 414.5 150.5 414.5Z" fill="#040404" stroke="#040404" stroke-width="32"/>
<path d="M37.5 126.5C39.1051 140.299 76.6023 471 80.5 477.5C84.3977 484 137.602 427.5 137.602 427.5L95.6023 60C95.6023 60 35.8949 112.701 37.5 126.5Z" fill="#F2F2F2" stroke="#040404" stroke-width="28"/>
<path d="M39.5526 139.977L112.74 71" stroke="#040404" stroke-width="30"/>
<path d="M40.5526 164.977L113.74 96" stroke="#040404" stroke-width="30"/>
<path d="M45.5526 182.977L118.74 114" stroke="#040404" stroke-width="30"/>
</svg>
